<svg width="3840" height="25" viewBox="0 0 3840 25" fill="none" xmlns="http://www.w3.org/2000/svg">
<rect width="10.35" height="24.9694" fill="#FFFFF1"/>
<rect x="10.35" width="10.35" height="24.9694" fill="#0213AF"/>
<rect x="20.7" width="10.35" height="24.9694" fill="#FFFFF1"/>
<rect x="31.05" width="10.35" height="24.9694" fill="#0213AF"/>
<rect x="41.4" width="10.35" height="24.9694" fill="#FFFFF1"/>
<rect x="51.75" width="10.35" height="24.9694" fill="#0213AF"/>
<rect x="62.1" width="10.35" height="24.9694" fill="#FFFFF1"/>
<rect x="72.45" width="10.35" height="24.9694" fill="#0213AF"/>
<rect x="82.8" width="10.35" height="24.9694" fill="#FFFFF1"/>
<rect x="93.15" width="10.35" height="24.9694" fill="#0213AF"/>
<rect x="103.5" width="10.35" height="24.9694" fill="#FFFFF1"/>
<rect x="113.85" width="10.35" height="24.9694" fill="#0213AF"/>
<rect x="124.2" width="10.35" height="24.9694" fill="#FFFFF1"/>
<rect x="134.55" width="10.35" height="24.9694" fill="#0213AF"/>
<rect x="144.9" width="10.35" height="24.9694" fill="#FFFFF1"/>
<rect x="155.25" width="10.35" height="24.9694" fill="#0213AF"/>
<rect x="165.6" width="10.35" height="24.9694" fill="#FFFFF1"/>
<rect x="175.95" width="10.35" height="24.9694" fill="#0213AF"/>
<rect x="186.3" width="10.35" height="24.9694" fill="#FFFFF1"/>
<rect x="196.65" width="10.35" height="24.9694" fill="#0213AF"/>
<rect x="207" width="10.35" height="24.9694" fill="#FFFFF1"/>
<rect x="217.35" width="10.35" height="24.9694" fill="#0213AF"/>
<rect x="227.7" width="10.35" height="24.9694" fill="#FFFFF1"/>
<rect x="238.05" width="10.35" height="24.9694" fill="#0213AF"/>
<rect x="248.4" width="10.35" height="24.9694" fill="#FFFFF1"/>
<rect x="258.75" width="10.35" height="24.9694" fill="#0213AF"/>
<rect x="269.1" width="10.35" height="24.9694" fill="#FFFFF1"/>
<rect x="279.45" width="10.35" height="24.9694" fill="#0213AF"/>
<rect x="289.8" width="10.35" height="24.9694" fill="#FFFFF1"/>
<rect x="300.15" width="10.35" height="24.9694" fill="#0213AF"/>
<rect x="310.5" width="10.35" height="24.9694" fill="#FFFFF1"/>
<rect x="320.85" width="10.35" height="24.9694" fill="#0213AF"/>
<rect x="331.2" width="10.35" height="24.9694" fill="#FFFFF1"/>
<rect x="341.55" width="10.35" height="24.9694" fill="#0213AF"/>
<rect x="351.9" width="10.35" height="24.9694" fill="#FFFFF1"/>
<rect x="362.25" width="10.35" height="24.9694" fill="#0213AF"/>
<rect x="372.6" width="10.35" height="24.9694" fill="#FFFFF1"/>
<rect x="382.95" width="10.35" height="24.9694" fill="#0213AF"/>
<rect x="393.3" width="10.35" height="24.9694" fill="#FFFFF1"/>
<rect x="403.65" width="10.35" height="24.9694" fill="#0213AF"/>
<rect x="414" width="10.35" height="24.9694" fill="#FFFFF1"/>
<rect x="424.35" width="10.35" height="24.9694" fill="#0213AF"/>
<rect x="434.7" width="10.35" height="24.9694" fill="#FFFFF1"/>
<rect x="445.05" width="10.35" height="24.9694" fill="#0213AF"/>
<rect x="455.4" width="10.35" height="24.9694" fill="#FFFFF1"/>
<rect x="465.75" width="10.35" height="24.9694" fill="#0213AF"/>
<rect x="476.1" width="10.35" height="24.9694" fill="#FFFFF1"/>
<rect x="486.45" width="10.35" height="24.9694" fill="#0213AF"/>
<rect x="496.8" width="10.35" height="24.9694" fill="#FFFFF1"/>
<rect x="507.15" width="10.35" height="24.9694" fill="#0213AF"/>
<rect x="517.5" width="10.35" height="24.9694" fill="#FFFFF1"/>
<rect x="527.85" width="10.35" height="24.9694" fill="#0213AF"/>
<rect x="538.2" width="10.35" height="24.9694" fill="#FFFFF1"/>
<rect x="548.55" width="10.35" height="24.9694" fill="#0213AF"/>
<rect x="558.9" width="10.35" height="24.9694" fill="#FFFFF1"/>
<rect x="569.25" width="10.35" height="24.9694" fill="#0213AF"/>
<rect x="579.6" width="10.35" height="24.9694" fill="#FFFFF1"/>
<rect x="589.95" width="10.35" height="24.9694" fill="#0213AF"/>
<rect x="600.3" width="10.35" height="24.9694" fill="#FFFFF1"/>
<rect x="610.65" width="10.35" height="24.9694" fill="#0213AF"/>
<rect x="621" width="10.35" height="24.9694" fill="#FFFFF1"/>
<rect x="631.35" width="10.35" height="24.9694" fill="#0213AF"/>
<rect x="641.7" width="10.35" height="24.9694" fill="#FFFFF1"/>
<rect x="652.05" width="10.35" height="24.9694" fill="#0213AF"/>
<rect x="662.4" width="10.35" height="24.9694" fill="#FFFFF1"/>
<rect x="672.75" width="10.35" height="24.9694" fill="#0213AF"/>
<rect x="683.1" width="10.35" height="24.9694" fill="#FFFFF1"/>
<rect x="693.45" width="10.35" height="24.9694" fill="#0213AF"/>
<rect x="703.8" width="10.35" height="24.9694" fill="#FFFFF1"/>
<rect x="714.15" width="10.35" height="24.9694" fill="#0213AF"/>
<rect x="724.5" width="10.35" height="24.9694" fill="#FFFFF1"/>
<rect x="734.85" width="10.35" height="24.9694" fill="#0213AF"/>
<rect x="745.2" width="10.35" height="24.9694" fill="#FFFFF1"/>
<rect x="755.55" width="10.35" height="24.9694" fill="#0213AF"/>
<rect x="765.9" width="10.35" height="24.9694" fill="#FFFFF1"/>
<rect x="776.25" width="10.35" height="24.9694" fill="#0213AF"/>
<rect x="786.6" width="10.35" height="24.9694" fill="#FFFFF1"/>
<rect x="796.95" width="10.35" height="24.9694" fill="#0213AF"/>
<rect x="807.299" width="10.35" height="24.9694" fill="#FFFFF1"/>
<rect x="817.649" width="10.35" height="24.9694" fill="#0213AF"/>
<rect x="827.999" width="10.35" height="24.9694" fill="#FFFFF1"/>
<rect x="838.349" width="10.35" height="24.9694" fill="#0213AF"/>
<rect x="848.699" width="10.35" height="24.9694" fill="#FFFFF1"/>
<rect x="859.049" width="10.35" height="24.9694" fill="#0213AF"/>
<rect x="869.399" width="10.35" height="24.9694" fill="#FFFFF1"/>
<rect x="879.749" width="10.35" height="24.9694" fill="#0213AF"/>
<rect x="890.099" width="10.35" height="24.9694" fill="#FFFFF1"/>
<rect x="900.449" width="10.35" height="24.9694" fill="#0213AF"/>
<rect x="910.799" width="10.35" height="24.9694" fill="#FFFFF1"/>
<rect x="921.149" width="10.35" height="24.9694" fill="#0213AF"/>
<rect x="931.499" width="10.35" height="24.9694" fill="#FFFFF1"/>
<rect x="941.849" width="10.35" height="24.9694" fill="#0213AF"/>
<rect x="952.199" width="10.35" height="24.9694" fill="#FFFFF1"/>
<rect x="962.549" width="10.35" height="24.9694" fill="#0213AF"/>
<rect x="972.899" width="10.35" height="24.9694" fill="#FFFFF1"/>
<rect x="983.249" width="10.35" height="24.9694" fill="#0213AF"/>
<rect x="993.599" width="10.35" height="24.9694" fill="#FFFFF1"/>
<rect x="1003.95" width="10.35" height="24.9694" fill="#0213AF"/>
<rect x="1014.3" width="10.35" height="24.9694" fill="#FFFFF1"/>
<rect x="1024.65" width="10.35" height="24.9694" fill="#0213AF"/>
<rect x="1035" width="10.35" height="24.9694" fill="#FFFFF1"/>
<rect x="1045.35" width="10.35" height="24.9694" fill="#0213AF"/>
<rect x="1055.7" width="10.35" height="24.9694" fill="#FFFFF1"/>
<rect x="1066.05" width="10.35" height="24.9694" fill="#0213AF"/>
<rect x="1076.4" width="10.35" height="24.9694" fill="#FFFFF1"/>
<rect x="1086.75" width="10.35" height="24.9694" fill="#0213AF"/>
<rect x="1097.1" width="10.35" height="24.9694" fill="#FFFFF1"/>
<rect x="1107.45" width="10.35" height="24.9694" fill="#0213AF"/>
<rect x="1117.8" width="10.35" height="24.9694" fill="#FFFFF1"/>
<rect x="1128.15" width="10.35" height="24.9694" fill="#0213AF"/>
<rect x="1138.5" width="10.35" height="24.9694" fill="#FFFFF1"/>
<rect x="1148.85" width="10.35" height="24.9694" fill="#0213AF"/>
<rect x="1159.2" width="10.35" height="24.9694" fill="#FFFFF1"/>
<rect x="1169.55" width="10.35" height="24.9694" fill="#0213AF"/>
<rect x="1179.9" width="10.35" height="24.9694" fill="#FFFFF1"/>
<rect x="1190.25" width="10.35" height="24.9694" fill="#0213AF"/>
<rect x="1200.6" width="10.35" height="24.9694" fill="#FFFFF1"/>
<rect x="1210.95" width="10.35" height="24.9694" fill="#0213AF"/>
<rect x="1221.3" width="10.35" height="24.9694" fill="#FFFFF1"/>
<rect x="1231.65" width="10.35" height="24.9694" fill="#0213AF"/>
<rect x="1242" width="10.35" height="24.9694" fill="#FFFFF1"/>
<rect x="1252.35" width="10.35" height="24.9694" fill="#0213AF"/>
<rect x="1262.7" width="10.35" height="24.9694" fill="#FFFFF1"/>
<rect x="1273.05" width="10.35" height="24.9694" fill="#0213AF"/>
<rect x="1283.4" width="10.35" height="24.9694" fill="#FFFFF1"/>
<rect x="1293.75" width="10.35" height="24.9694" fill="#0213AF"/>
<rect x="1304.1" width="10.35" height="24.9694" fill="#FFFFF1"/>
<rect x="1314.45" width="10.35" height="24.9694" fill="#0213AF"/>
<rect x="1324.8" width="10.35" height="24.9694" fill="#FFFFF1"/>
<rect x="1335.15" width="10.35" height="24.9694" fill="#0213AF"/>
<rect x="1345.5" width="10.35" height="24.9694" fill="#FFFFF1"/>
<rect x="1355.85" width="10.35" height="24.9694" fill="#0213AF"/>
<rect x="1366.2" width="10.35" height="24.9694" fill="#FFFFF1"/>
<rect x="1376.55" width="10.35" height="24.9694" fill="#0213AF"/>
<rect x="1386.9" width="10.35" height="24.9694" fill="#FFFFF1"/>
<rect x="1397.25" width="10.35" height="24.9694" fill="#0213AF"/>
<rect x="1407.6" width="10.35" height="24.9694" fill="#FFFFF1"/>
<rect x="1417.95" width="10.35" height="24.9694" fill="#0213AF"/>
<rect x="1428.3" width="10.35" height="24.9694" fill="#FFFFF1"/>
<rect x="1438.65" width="10.35" height="24.9694" fill="#0213AF"/>
<rect x="1449" width="10.35" height="24.9694" fill="#FFFFF1"/>
<rect x="1459.35" width="10.35" height="24.9694" fill="#0213AF"/>
<rect x="1469.7" width="10.35" height="24.9694" fill="#FFFFF1"/>
<rect x="1480.05" width="10.35" height="24.9694" fill="#0213AF"/>
<rect x="1490.4" width="10.35" height="24.9694" fill="#FFFFF1"/>
<rect x="1500.75" width="10.35" height="24.9694" fill="#0213AF"/>
<rect x="1511.1" width="10.35" height="24.9694" fill="#FFFFF1"/>
<rect x="1521.45" width="10.35" height="24.9694" fill="#0213AF"/>
<rect x="1531.8" width="10.35" height="24.9694" fill="#FFFFF1"/>
<rect x="1542.15" width="10.35" height="24.9694" fill="#0213AF"/>
<rect x="1552.5" width="10.35" height="24.9694" fill="#FFFFF1"/>
<rect x="1562.85" width="10.35" height="24.9694" fill="#0213AF"/>
<rect x="1573.2" width="10.35" height="24.9694" fill="#FFFFF1"/>
<rect x="1583.55" width="10.35" height="24.9694" fill="#0213AF"/>
<rect x="1593.9" width="10.35" height="24.9694" fill="#FFFFF1"/>
<rect x="1604.25" width="10.35" height="24.9694" fill="#0213AF"/>
<rect x="1614.6" width="10.35" height="24.9694" fill="#FFFFF1"/>
<rect x="1624.95" width="10.35" height="24.9694" fill="#0213AF"/>
<rect x="1635.3" width="10.35" height="24.9694" fill="#FFFFF1"/>
<rect x="1645.65" width="10.35" height="24.9694" fill="#0213AF"/>
<rect x="1656" width="10.35" height="24.9694" fill="#FFFFF1"/>
<rect x="1666.35" width="10.35" height="24.9694" fill="#0213AF"/>
<rect x="1676.7" width="10.35" height="24.9694" fill="#FFFFF1"/>
<rect x="1687.05" width="10.35" height="24.9694" fill="#0213AF"/>
<rect x="1697.4" width="10.35" height="24.9694" fill="#FFFFF1"/>
<rect x="1707.75" width="10.35" height="24.9694" fill="#0213AF"/>
<rect x="1718.1" width="10.35" height="24.9694" fill="#FFFFF1"/>
<rect x="1728.45" width="10.35" height="24.9694" fill="#0213AF"/>
<rect x="1738.8" width="10.35" height="24.9694" fill="#FFFFF1"/>
<rect x="1749.15" width="10.35" height="24.9694" fill="#0213AF"/>
<rect x="1759.5" width="10.35" height="24.9694" fill="#FFFFF1"/>
<rect x="1769.85" width="10.35" height="24.9694" fill="#0213AF"/>
<rect x="1780.2" width="10.35" height="24.9694" fill="#FFFFF1"/>
<rect x="1790.55" width="10.35" height="24.9694" fill="#0213AF"/>
<rect x="1800.9" width="10.35" height="24.9694" fill="#FFFFF1"/>
<rect x="1811.25" width="10.35" height="24.9694" fill="#0213AF"/>
<rect x="1821.6" width="10.35" height="24.9694" fill="#FFFFF1"/>
<rect x="1831.95" width="10.35" height="24.9694" fill="#0213AF"/>
<rect x="1842.3" width="10.35" height="24.9694" fill="#FFFFF1"/>
<rect x="1852.65" width="10.35" height="24.9694" fill="#0213AF"/>
<rect x="1863" width="10.35" height="24.9694" fill="#FFFFF1"/>
<rect x="1873.35" width="10.35" height="24.9694" fill="#0213AF"/>
<rect x="1883.7" width="10.35" height="24.9694" fill="#FFFFF1"/>
<rect x="1894.05" width="10.35" height="24.9694" fill="#0213AF"/>
<rect x="1904.4" width="10.35" height="24.9694" fill="#FFFFF1"/>
<rect x="1914.75" width="10.35" height="24.9694" fill="#0213AF"/>
<rect x="1925.1" width="10.35" height="24.9694" fill="#FFFFF1"/>
<rect x="1935.45" width="10.35" height="24.9694" fill="#0213AF"/>
<rect x="1945.8" width="10.35" height="24.9694" fill="#FFFFF1"/>
<rect x="1956.15" width="10.35" height="24.9694" fill="#0213AF"/>
<rect x="1966.5" width="10.35" height="24.9694" fill="#FFFFF1"/>
<rect x="1976.85" width="10.35" height="24.9694" fill="#0213AF"/>
<rect x="1987.2" width="10.35" height="24.9694" fill="#FFFFF1"/>
<rect x="1997.55" width="10.35" height="24.9694" fill="#0213AF"/>
<rect x="2007.9" width="10.35" height="24.9694" fill="#FFFFF1"/>
<rect x="2018.25" width="10.35" height="24.9694" fill="#0213AF"/>
<rect x="2028.6" width="10.35" height="24.9694" fill="#FFFFF1"/>
<rect x="2038.95" width="10.35" height="24.9694" fill="#0213AF"/>
<rect x="2049.3" width="10.35" height="24.9694" fill="#FFFFF1"/>
<rect x="2059.65" width="10.35" height="24.9694" fill="#0213AF"/>
<rect x="2070" width="10.35" height="24.9694" fill="#FFFFF1"/>
<rect x="2080.35" width="10.35" height="24.9694" fill="#0213AF"/>
<rect x="2090.7" width="10.35" height="24.9694" fill="#FFFFF1"/>
<rect x="2101.05" width="10.35" height="24.9694" fill="#0213AF"/>
<rect x="2111.4" width="10.35" height="24.9694" fill="#FFFFF1"/>
<rect x="2121.75" width="10.35" height="24.9694" fill="#0213AF"/>
<rect x="2132.1" width="10.35" height="24.9694" fill="#FFFFF1"/>
<rect x="2142.45" width="10.35" height="24.9694" fill="#0213AF"/>
<rect x="2152.8" width="10.35" height="24.9694" fill="#FFFFF1"/>
<rect x="2163.15" width="10.35" height="24.9694" fill="#0213AF"/>
<rect x="2173.5" width="10.35" height="24.9694" fill="#FFFFF1"/>
<rect x="2183.85" width="10.35" height="24.9694" fill="#0213AF"/>
<rect x="2194.2" width="10.35" height="24.9694" fill="#FFFFF1"/>
<rect x="2204.55" width="10.35" height="24.9694" fill="#0213AF"/>
<rect x="2214.9" width="10.35" height="24.9694" fill="#FFFFF1"/>
<rect x="2225.25" width="10.35" height="24.9694" fill="#0213AF"/>
<rect x="2235.6" width="10.35" height="24.9694" fill="#FFFFF1"/>
<rect x="2245.95" width="10.35" height="24.9694" fill="#0213AF"/>
<rect x="2256.3" width="10.35" height="24.9694" fill="#FFFFF1"/>
<rect x="2266.65" width="10.35" height="24.9694" fill="#0213AF"/>
<rect x="2277" width="10.35" height="24.9694" fill="#FFFFF1"/>
<rect x="2287.35" width="10.35" height="24.9694" fill="#0213AF"/>
<rect x="2297.7" width="10.35" height="24.9694" fill="#FFFFF1"/>
<rect x="2308.05" width="10.35" height="24.9694" fill="#0213AF"/>
<rect x="2318.4" width="10.35" height="24.9694" fill="#FFFFF1"/>
<rect x="2328.75" width="10.35" height="24.9694" fill="#0213AF"/>
<rect x="2339.1" width="10.35" height="24.9694" fill="#FFFFF1"/>
<rect x="2349.45" width="10.35" height="24.9694" fill="#0213AF"/>
<rect x="2359.8" width="10.35" height="24.9694" fill="#FFFFF1"/>
<rect x="2370.15" width="10.35" height="24.9694" fill="#0213AF"/>
<rect x="2380.5" width="10.35" height="24.9694" fill="#FFFFF1"/>
<rect x="2390.85" width="10.35" height="24.9694" fill="#0213AF"/>
<rect x="2401.2" width="10.35" height="24.9694" fill="#FFFFF1"/>
<rect x="2411.55" width="10.35" height="24.9694" fill="#0213AF"/>
<rect x="2421.9" width="10.35" height="24.9694" fill="#FFFFF1"/>
<rect x="2432.25" width="10.35" height="24.9694" fill="#0213AF"/>
<rect x="2442.6" width="10.35" height="24.9694" fill="#FFFFF1"/>
<rect x="2452.95" width="10.35" height="24.9694" fill="#0213AF"/>
<rect x="2463.3" width="10.35" height="24.9694" fill="#FFFFF1"/>
<rect x="2473.65" width="10.35" height="24.9694" fill="#0213AF"/>
<rect x="2484" width="10.35" height="24.9694" fill="#FFFFF1"/>
<rect x="2494.35" width="10.35" height="24.9694" fill="#0213AF"/>
<rect x="2504.7" width="10.35" height="24.9694" fill="#FFFFF1"/>
<rect x="2515.05" width="10.35" height="24.9694" fill="#0213AF"/>
<rect x="2525.4" width="10.35" height="24.9694" fill="#FFFFF1"/>
<rect x="2535.75" width="10.35" height="24.9694" fill="#0213AF"/>
<rect x="2546.1" width="10.35" height="24.9694" fill="#FFFFF1"/>
<rect x="2556.45" width="10.35" height="24.9694" fill="#0213AF"/>
<rect x="2566.8" width="10.35" height="24.9694" fill="#FFFFF1"/>
<rect x="2577.15" width="10.35" height="24.9694" fill="#0213AF"/>
<rect x="2587.5" width="10.35" height="24.9694" fill="#FFFFF1"/>
<rect x="2597.85" width="10.35" height="24.9694" fill="#0213AF"/>
<rect x="2608.2" width="10.35" height="24.9694" fill="#FFFFF1"/>
<rect x="2618.55" width="10.35" height="24.9694" fill="#0213AF"/>
<rect x="2628.9" width="10.35" height="24.9694" fill="#FFFFF1"/>
<rect x="2639.25" width="10.35" height="24.9694" fill="#0213AF"/>
<rect x="2649.6" width="10.35" height="24.9694" fill="#FFFFF1"/>
<rect x="2659.95" width="10.35" height="24.9694" fill="#0213AF"/>
<rect x="2670.3" width="10.35" height="24.9694" fill="#FFFFF1"/>
<rect x="2680.65" width="10.35" height="24.9694" fill="#0213AF"/>
<rect x="2691" width="10.35" height="24.9694" fill="#FFFFF1"/>
<rect x="2701.35" width="10.35" height="24.9694" fill="#0213AF"/>
<rect x="2711.7" width="10.35" height="24.9694" fill="#FFFFF1"/>
<rect x="2722.05" width="10.35" height="24.9694" fill="#0213AF"/>
<rect x="2732.4" width="10.35" height="24.9694" fill="#FFFFF1"/>
<rect x="2742.75" width="10.35" height="24.9694" fill="#0213AF"/>
<rect x="2753.1" width="10.35" height="24.9694" fill="#FFFFF1"/>
<rect x="2763.45" width="10.35" height="24.9694" fill="#0213AF"/>
<rect x="2773.8" width="10.35" height="24.9694" fill="#FFFFF1"/>
<rect x="2784.15" width="10.35" height="24.9694" fill="#0213AF"/>
<rect x="2794.5" width="10.35" height="24.9694" fill="#FFFFF1"/>
<rect x="2804.85" width="10.35" height="24.9694" fill="#0213AF"/>
<rect x="2815.2" width="10.35" height="24.9694" fill="#FFFFF1"/>
<rect x="2825.55" width="10.35" height="24.9694" fill="#0213AF"/>
<rect x="2835.9" width="10.35" height="24.9694" fill="#FFFFF1"/>
<rect x="2846.25" width="10.35" height="24.9694" fill="#0213AF"/>
<rect x="2856.6" width="10.35" height="24.9694" fill="#FFFFF1"/>
<rect x="2866.95" width="10.35" height="24.9694" fill="#0213AF"/>
<rect x="2877.3" width="10.35" height="24.9694" fill="#FFFFF1"/>
<rect x="2887.65" width="10.35" height="24.9694" fill="#0213AF"/>
<rect x="2898" width="10.35" height="24.9694" fill="#FFFFF1"/>
<rect x="2908.35" width="10.35" height="24.9694" fill="#0213AF"/>
<rect x="2918.7" width="10.35" height="24.9694" fill="#FFFFF1"/>
<rect x="2929.05" width="10.35" height="24.9694" fill="#0213AF"/>
<rect x="2939.41" width="10.35" height="24.9694" fill="#FFFFF1"/>
<rect x="2949.76" width="10.35" height="24.9694" fill="#0213AF"/>
<rect x="2960.11" width="10.35" height="24.9694" fill="#FFFFF1"/>
<rect x="2970.46" width="10.35" height="24.9694" fill="#0213AF"/>
<rect x="2980.81" width="10.35" height="24.9694" fill="#FFFFF1"/>
<rect x="2991.16" width="10.35" height="24.9694" fill="#0213AF"/>
<rect x="3001.51" width="10.35" height="24.9694" fill="#FFFFF1"/>
<rect x="3011.86" width="10.35" height="24.9694" fill="#0213AF"/>
<rect x="3022.21" width="10.35" height="24.9694" fill="#FFFFF1"/>
<rect x="3032.56" width="10.35" height="24.9694" fill="#0213AF"/>
<rect x="3042.91" width="10.35" height="24.9694" fill="#FFFFF1"/>
<rect x="3053.26" width="10.35" height="24.9694" fill="#0213AF"/>
<rect x="3063.61" width="10.35" height="24.9694" fill="#FFFFF1"/>
<rect x="3073.96" width="10.35" height="24.9694" fill="#0213AF"/>
<rect x="3084.31" width="10.35" height="24.9694" fill="#FFFFF1"/>
<rect x="3094.66" width="10.35" height="24.9694" fill="#0213AF"/>
<rect x="3105.01" width="10.35" height="24.9694" fill="#FFFFF1"/>
<rect x="3115.36" width="10.35" height="24.9694" fill="#0213AF"/>
<rect x="3125.71" width="10.35" height="24.9694" fill="#FFFFF1"/>
<rect x="3136.06" width="10.35" height="24.9694" fill="#0213AF"/>
<rect x="3146.41" width="10.35" height="24.9694" fill="#FFFFF1"/>
<rect x="3156.76" width="10.35" height="24.9694" fill="#0213AF"/>
<rect x="3167.11" width="10.35" height="24.9694" fill="#FFFFF1"/>
<rect x="3177.46" width="10.35" height="24.9694" fill="#0213AF"/>
<rect x="3187.81" width="10.35" height="24.9694" fill="#FFFFF1"/>
<rect x="3198.16" width="10.35" height="24.9694" fill="#0213AF"/>
<rect x="3208.51" width="10.35" height="24.9694" fill="#FFFFF1"/>
<rect x="3218.86" width="10.35" height="24.9694" fill="#0213AF"/>
<rect x="3229.21" width="10.35" height="24.9694" fill="#FFFFF1"/>
<rect x="3239.56" width="10.35" height="24.9694" fill="#0213AF"/>
<rect x="3249.91" width="10.35" height="24.9694" fill="#FFFFF1"/>
<rect x="3260.26" width="10.35" height="24.9694" fill="#0213AF"/>
<rect x="3270.61" width="10.35" height="24.9694" fill="#FFFFF1"/>
<rect x="3280.96" width="10.35" height="24.9694" fill="#0213AF"/>
<rect x="3291.31" width="10.35" height="24.9694" fill="#FFFFF1"/>
<rect x="3301.66" width="10.35" height="24.9694" fill="#0213AF"/>
<rect x="3312.01" width="10.35" height="24.9694" fill="#FFFFF1"/>
<rect x="3322.36" width="10.35" height="24.9694" fill="#0213AF"/>
<rect x="3332.71" width="10.35" height="24.9694" fill="#FFFFF1"/>
<rect x="3343.06" width="10.35" height="24.9694" fill="#0213AF"/>
<rect x="3353.41" width="10.35" height="24.9694" fill="#FFFFF1"/>
<rect x="3363.76" width="10.35" height="24.9694" fill="#0213AF"/>
<rect x="3374.11" width="10.35" height="24.9694" fill="#FFFFF1"/>
<rect x="3384.46" width="10.35" height="24.9694" fill="#0213AF"/>
<rect x="3394.81" width="10.35" height="24.9694" fill="#FFFFF1"/>
<rect x="3405.16" width="10.35" height="24.9694" fill="#0213AF"/>
<rect x="3415.51" width="10.35" height="24.9694" fill="#FFFFF1"/>
<rect x="3425.86" width="10.35" height="24.9694" fill="#0213AF"/>
<rect x="3436.21" width="10.35" height="24.9694" fill="#FFFFF1"/>
<rect x="3446.56" width="10.35" height="24.9694" fill="#0213AF"/>
<rect x="3456.91" width="10.35" height="24.9694" fill="#FFFFF1"/>
<rect x="3467.26" width="10.35" height="24.9694" fill="#0213AF"/>
<rect x="3477.61" width="10.35" height="24.9694" fill="#FFFFF1"/>
<rect x="3487.96" width="10.35" height="24.9694" fill="#0213AF"/>
<rect x="3498.31" width="10.35" height="24.9694" fill="#FFFFF1"/>
<rect x="3508.66" width="10.35" height="24.9694" fill="#0213AF"/>
<rect x="3519.01" width="10.35" height="24.9694" fill="#FFFFF1"/>
<rect x="3529.36" width="10.35" height="24.9694" fill="#0213AF"/>
<rect x="3539.71" width="10.35" height="24.9694" fill="#FFFFF1"/>
<rect x="3550.06" width="10.35" height="24.9694" fill="#0213AF"/>
<rect x="3560.41" width="10.35" height="24.9694" fill="#FFFFF1"/>
<rect x="3570.76" width="10.35" height="24.9694" fill="#0213AF"/>
<rect x="3581.11" width="10.35" height="24.9694" fill="#FFFFF1"/>
<rect x="3591.46" width="10.35" height="24.9694" fill="#0213AF"/>
<rect x="3601.81" width="10.35" height="24.9694" fill="#FFFFF1"/>
<rect x="3612.16" width="10.35" height="24.9694" fill="#0213AF"/>
<rect x="3622.51" width="10.35" height="24.9694" fill="#FFFFF1"/>
<rect x="3632.86" width="10.35" height="24.9694" fill="#0213AF"/>
<rect x="3643.21" width="10.35" height="24.9694" fill="#FFFFF1"/>
<rect x="3653.56" width="10.35" height="24.9694" fill="#0213AF"/>
<rect x="3663.91" width="10.35" height="24.9694" fill="#FFFFF1"/>
<rect x="3674.26" width="10.35" height="24.9694" fill="#0213AF"/>
<rect x="3684.61" width="10.35" height="24.9694" fill="#FFFFF1"/>
<rect x="3694.96" width="10.35" height="24.9694" fill="#0213AF"/>
<rect x="3705.31" width="10.35" height="24.9694" fill="#FFFFF1"/>
<rect x="3715.66" width="10.35" height="24.9694" fill="#0213AF"/>
<rect x="3726.01" width="10.35" height="24.9694" fill="#FFFFF1"/>
<rect x="3736.36" width="10.35" height="24.9694" fill="#0213AF"/>
<rect x="3746.71" width="10.35" height="24.9694" fill="#FFFFF1"/>
<rect x="3757.06" width="10.35" height="24.9694" fill="#0213AF"/>
<rect x="3767.41" width="10.35" height="24.9694" fill="#FFFFF1"/>
<rect x="3777.76" width="10.35" height="24.9694" fill="#0213AF"/>
<rect x="3788.11" width="10.35" height="24.9694" fill="#FFFFF1"/>
<rect x="3798.46" width="10.35" height="24.9694" fill="#0213AF"/>
<rect x="3808.81" width="10.35" height="24.9694" fill="#FFFFF1"/>
<rect x="3819.16" width="10.35" height="24.9694" fill="#0213AF"/>
<rect x="3829.51" width="10.35" height="24.9694" fill="#FFFFF1"/>
</svg>
